# xmcd CD database file
#
# Track frame offsets:
#	150
#	13205
#	25779
#	39205
#	50844
#	61668
#	71559
#	82656
#	94302
#	106326
#	117864
#	129575
#	141547
#	150121
#	161010
#	170656
#	182363
#	193259
#	202876
#	214392
#	228844
#	239433
#	251961
#	261666
#	270614
#	282277
#	292763
#	303969
#	316164
#	326436
#	335273
#
# Disc length: 4652 seconds
#
# Revision: 1
# Processed by: cddbd v1.5.1PL0 Copyright (c) Steve Scherf et al.
# Submitted via: CDex 1.50
#
DISCID=ba122a1f
DTITLE=Bobby Helms - Fraulein The Classic Years - Disc 2
DYEAR=1900
DGENRE=
TTITLE0=Fraulein
TTITLE1=Most Of The Time
TTITLE2=My Special Angel
TTITLE3=Just A Little Lonesome
TTITLE4=The Magic Song
TTITLE5=Sugar Moon
TTITLE6=Schoolboy Crush
TTITLE7=If I Only Knew
TTITLE8=Love My Lady
TTITLE9=Love My Lady
TTITLE10=Jacqueline
TTITLE11=Living In The Shadows Of The Past
TTITLE12=Forget About Him
TTITLE13=I Guess I'll Miss The Prom
TTITLE14=Miss Memory
TTITLE15=Soon It Can Be Told
TTITLE16=The Fool And The Angel
TTITLE17=Someone For Everyone
TTITLE18=Yesterday's Champagne
TTITLE19=Lonely River Rhine
TTITLE20=How Can You Divide A Little Child
TTITLE21=Borrowed Dreams
TTITLE22=You're The One
TTITLE23=I Want To Be With You
TTITLE24=You're No Longer Mine
TTITLE25=My Lucky Day
TTITLE26=Let Me Be The One
TTITLE27=Guess We Thought The World Would End
TTITLE28=Teach Me
TTITLE29=One Deep Love
TTITLE30=Once In A Lifetime
EXTD=
EXTT0=
EXTT1=
EXTT2=
EXTT3=
EXTT4=
EXTT5=
EXTT6=
EXTT7=
EXTT8=
EXTT9=
EXTT10=
EXTT11=
EXTT12=
EXTT13=
EXTT14=
EXTT15=
EXTT16=
EXTT17=
EXTT18=
EXTT19=
EXTT20=
EXTT21=
EXTT22=
EXTT23=
EXTT24=
EXTT25=
EXTT26=
EXTT27=
EXTT28=
EXTT29=
EXTT30=
PLAYORDER=
